<mxfile host="app.diagrams.net" modified="2022-02-11T10:05:26.014Z" agent="5.0 (Windows NT 10.0; Win64; x64) AppleWebKit/537.36 (KHTML, like Gecko) Chrome/98.0.4758.80 Safari/537.36 Edg/98.0.1108.43" etag="MAJ8bMXwVLtht746Namv" version="16.5.6" type="github">
  <diagram name="Page-1" id="5f0bae14-7c28-e335-631c-24af17079c00">
    <mxGraphModel dx="1314" dy="713" grid="0" gridSize="10" guides="1" tooltips="1" connect="1" arrows="1" fold="1" page="1" pageScale="1" pageWidth="1100" pageHeight="850" background="none" math="0" shadow="0">
      <root>
        <mxCell id="0" />
        <mxCell id="1" parent="0" />
        <mxCell id="8f4gQFdD9FJ9nO9-gUFD-1" value="" style="rounded=0;whiteSpace=wrap;html=1;fillColor=#b1ddf0;strokeColor=#10739e;" vertex="1" parent="1">
          <mxGeometry x="390" y="60" width="426" height="120" as="geometry" />
        </mxCell>
        <mxCell id="8f4gQFdD9FJ9nO9-gUFD-2" value="&lt;div class=&quot;okr-block-clipboard&quot;&gt;&lt;/div&gt;&lt;div&gt;home_module&lt;/div&gt;" style="rounded=1;whiteSpace=wrap;html=1;" vertex="1" parent="1">
          <mxGeometry x="430" y="80" width="150" height="30" as="geometry" />
        </mxCell>
        <mxCell id="8f4gQFdD9FJ9nO9-gUFD-3" value="" style="endArrow=classic;html=1;rounded=0;exitX=0.5;exitY=1;exitDx=0;exitDy=0;" edge="1" parent="1" source="8f4gQFdD9FJ9nO9-gUFD-2" target="8f4gQFdD9FJ9nO9-gUFD-4">
          <mxGeometry width="50" height="50" relative="1" as="geometry">
            <mxPoint x="540" y="290" as="sourcePoint" />
            <mxPoint x="505" y="220" as="targetPoint" />
          </mxGeometry>
        </mxCell>
        <mxCell id="8f4gQFdD9FJ9nO9-gUFD-4" value="&lt;div class=&quot;okr-block-clipboard&quot;&gt;&lt;/div&gt;&lt;div&gt;&lt;div class=&quot;okr-block-clipboard&quot;&gt;&lt;/div&gt;&lt;div&gt;home_camera_manager&lt;/div&gt;&lt;/div&gt;" style="rounded=1;whiteSpace=wrap;html=1;" vertex="1" parent="1">
          <mxGeometry x="430" y="140" width="150" height="30" as="geometry" />
        </mxCell>
        <mxCell id="8f4gQFdD9FJ9nO9-gUFD-5" value="" style="endArrow=classic;html=1;rounded=0;exitX=0.5;exitY=1;exitDx=0;exitDy=0;" edge="1" parent="1" source="8f4gQFdD9FJ9nO9-gUFD-4">
          <mxGeometry width="50" height="50" relative="1" as="geometry">
            <mxPoint x="504.58" y="280" as="sourcePoint" />
            <mxPoint x="505" y="210" as="targetPoint" />
          </mxGeometry>
        </mxCell>
        <mxCell id="8f4gQFdD9FJ9nO9-gUFD-6" value="" style="rounded=0;whiteSpace=wrap;html=1;fillColor=#d0cee2;strokeColor=#56517e;" vertex="1" parent="1">
          <mxGeometry x="220" y="210" width="400" height="220" as="geometry" />
        </mxCell>
        <mxCell id="8f4gQFdD9FJ9nO9-gUFD-8" value="&lt;div class=&quot;okr-block-clipboard&quot;&gt;&lt;/div&gt;&lt;div&gt;&lt;span style=&quot;text-align: left&quot;&gt;house_relatives_common&lt;/span&gt;&lt;br&gt;&lt;/div&gt;" style="rounded=1;whiteSpace=wrap;html=1;" vertex="1" parent="1">
          <mxGeometry x="430" y="230" width="150" height="30" as="geometry" />
        </mxCell>
        <mxCell id="8f4gQFdD9FJ9nO9-gUFD-10" value="&lt;div class=&quot;okr-block-clipboard&quot;&gt;&lt;/div&gt;&lt;div style=&quot;text-align: left&quot;&gt;EViewMode&lt;br&gt;&lt;/div&gt;" style="rounded=1;whiteSpace=wrap;html=1;" vertex="1" parent="1">
          <mxGeometry x="435" y="350" width="140" height="30" as="geometry" />
        </mxCell>
        <mxCell id="8f4gQFdD9FJ9nO9-gUFD-11" value="" style="endArrow=classic;html=1;rounded=0;exitX=0.5;exitY=1;exitDx=0;exitDy=0;" edge="1" parent="1" source="8f4gQFdD9FJ9nO9-gUFD-8" target="8f4gQFdD9FJ9nO9-gUFD-10">
          <mxGeometry width="50" height="50" relative="1" as="geometry">
            <mxPoint x="540" y="280" as="sourcePoint" />
            <mxPoint x="590" y="230" as="targetPoint" />
          </mxGeometry>
        </mxCell>
        <mxCell id="8f4gQFdD9FJ9nO9-gUFD-12" value="&lt;font face=&quot;helvetica&quot;&gt;定义四种&lt;br&gt;相机模式&lt;/font&gt;" style="text;whiteSpace=wrap;html=1;" vertex="1" parent="1">
          <mxGeometry x="450" y="290" width="100" height="30" as="geometry" />
        </mxCell>
        <mxCell id="8f4gQFdD9FJ9nO9-gUFD-14" value="&lt;div class=&quot;okr-block-clipboard&quot;&gt;&lt;/div&gt;&lt;div style=&quot;text-align: left&quot;&gt;SwitchTo&lt;br&gt;&lt;/div&gt;" style="rounded=1;whiteSpace=wrap;html=1;" vertex="1" parent="1">
          <mxGeometry x="320" y="350" width="110" height="30" as="geometry" />
        </mxCell>
        <mxCell id="8f4gQFdD9FJ9nO9-gUFD-15" value="" style="endArrow=classic;html=1;rounded=0;exitX=0;exitY=0.5;exitDx=0;exitDy=0;entryX=0.5;entryY=0;entryDx=0;entryDy=0;" edge="1" parent="1" source="8f4gQFdD9FJ9nO9-gUFD-8" target="8f4gQFdD9FJ9nO9-gUFD-14">
          <mxGeometry width="50" height="50" relative="1" as="geometry">
            <mxPoint x="640" y="290" as="sourcePoint" />
            <mxPoint x="690" y="240" as="targetPoint" />
            <Array as="points">
              <mxPoint x="375" y="245" />
            </Array>
          </mxGeometry>
        </mxCell>
        <mxCell id="8f4gQFdD9FJ9nO9-gUFD-16" value="&lt;font face=&quot;helvetica&quot;&gt;切换相机&lt;br&gt;模式&lt;/font&gt;" style="text;whiteSpace=wrap;html=1;" vertex="1" parent="1">
          <mxGeometry x="380" y="290" width="100" height="30" as="geometry" />
        </mxCell>
        <mxCell id="8f4gQFdD9FJ9nO9-gUFD-17" value="" style="endArrow=classic;html=1;rounded=0;exitX=0;exitY=0.5;exitDx=0;exitDy=0;entryX=1;entryY=0.25;entryDx=0;entryDy=0;" edge="1" parent="1" source="8f4gQFdD9FJ9nO9-gUFD-2" target="8f4gQFdD9FJ9nO9-gUFD-19">
          <mxGeometry width="50" height="50" relative="1" as="geometry">
            <mxPoint x="640" y="290" as="sourcePoint" />
            <mxPoint x="350" y="95" as="targetPoint" />
          </mxGeometry>
        </mxCell>
        <mxCell id="8f4gQFdD9FJ9nO9-gUFD-18" value="&lt;font face=&quot;helvetica&quot;&gt;注册操作&lt;br&gt;事件&lt;/font&gt;" style="text;whiteSpace=wrap;html=1;" vertex="1" parent="1">
          <mxGeometry x="340" y="100" width="80" height="30" as="geometry" />
        </mxCell>
        <mxCell id="8f4gQFdD9FJ9nO9-gUFD-19" value="" style="rounded=0;whiteSpace=wrap;html=1;fillColor=#bac8d3;strokeColor=#23445d;" vertex="1" parent="1">
          <mxGeometry x="220" y="60" width="120" height="140" as="geometry" />
        </mxCell>
        <mxCell id="8f4gQFdD9FJ9nO9-gUFD-20" value="&lt;div class=&quot;okr-block-clipboard&quot;&gt;&lt;/div&gt;&lt;div&gt;OnDrag&lt;/div&gt;" style="rounded=1;whiteSpace=wrap;html=1;" vertex="1" parent="1">
          <mxGeometry x="237.5" y="100" width="85" height="25" as="geometry" />
        </mxCell>
        <mxCell id="8f4gQFdD9FJ9nO9-gUFD-21" value="&lt;div class=&quot;okr-block-clipboard&quot;&gt;&lt;/div&gt;&lt;div&gt;OnClickDown&lt;/div&gt;" style="rounded=1;whiteSpace=wrap;html=1;" vertex="1" parent="1">
          <mxGeometry x="237.5" y="130" width="85" height="25" as="geometry" />
        </mxCell>
        <mxCell id="8f4gQFdD9FJ9nO9-gUFD-22" value="&lt;div class=&quot;okr-block-clipboard&quot;&gt;&lt;/div&gt;&lt;div&gt;OnEndDrag&lt;/div&gt;" style="rounded=1;whiteSpace=wrap;html=1;" vertex="1" parent="1">
          <mxGeometry x="237.5" y="162.5" width="85" height="25" as="geometry" />
        </mxCell>
        <mxCell id="8f4gQFdD9FJ9nO9-gUFD-24" value="&lt;div class=&quot;okr-block-clipboard&quot;&gt;&lt;/div&gt;&lt;div&gt;OnClick&lt;/div&gt;" style="rounded=1;whiteSpace=wrap;html=1;" vertex="1" parent="1">
          <mxGeometry x="237.5" y="70" width="85" height="25" as="geometry" />
        </mxCell>
        <mxCell id="8f4gQFdD9FJ9nO9-gUFD-31" value="house_edit_state_manager" style="rounded=1;whiteSpace=wrap;html=1;" vertex="1" parent="1">
          <mxGeometry x="620" y="142.5" width="170" height="25" as="geometry" />
        </mxCell>
        <mxCell id="8f4gQFdD9FJ9nO9-gUFD-32" value="" style="endArrow=classic;html=1;rounded=0;exitX=0.5;exitY=1;exitDx=0;exitDy=0;" edge="1" parent="1" source="8f4gQFdD9FJ9nO9-gUFD-31">
          <mxGeometry width="50" height="50" relative="1" as="geometry">
            <mxPoint x="490" y="230" as="sourcePoint" />
            <mxPoint x="705" y="210" as="targetPoint" />
          </mxGeometry>
        </mxCell>
        <mxCell id="8f4gQFdD9FJ9nO9-gUFD-33" value="" style="rounded=0;whiteSpace=wrap;html=1;fillColor=#fad7ac;strokeColor=#b46504;" vertex="1" parent="1">
          <mxGeometry x="640" y="210" width="120" height="70" as="geometry" />
        </mxCell>
        <mxCell id="8f4gQFdD9FJ9nO9-gUFD-34" value="&lt;div class=&quot;okr-block-clipboard&quot;&gt;&lt;/div&gt;&lt;div&gt;&lt;span lang=&quot;EN-US&quot;&gt;&lt;font style=&quot;font-size: 12px&quot;&gt;_TransferImp&lt;/font&gt;&lt;/span&gt;&lt;br&gt;&lt;/div&gt;" style="rounded=1;whiteSpace=wrap;html=1;" vertex="1" parent="1">
          <mxGeometry x="650" y="230" width="100" height="30" as="geometry" />
        </mxCell>
        <mxCell id="8f4gQFdD9FJ9nO9-gUFD-45" value="" style="endArrow=classic;html=1;rounded=0;exitX=1;exitY=0.5;exitDx=0;exitDy=0;entryX=0;entryY=0.5;entryDx=0;entryDy=0;" edge="1" parent="1" source="8f4gQFdD9FJ9nO9-gUFD-2" target="8f4gQFdD9FJ9nO9-gUFD-31">
          <mxGeometry width="50" height="50" relative="1" as="geometry">
            <mxPoint x="580" y="280" as="sourcePoint" />
            <mxPoint x="630" y="230" as="targetPoint" />
            <Array as="points">
              <mxPoint x="604" y="95" />
              <mxPoint x="604" y="155" />
            </Array>
          </mxGeometry>
        </mxCell>
        <mxCell id="8f4gQFdD9FJ9nO9-gUFD-46" value="" style="rounded=0;whiteSpace=wrap;html=1;fillColor=#fad9d5;strokeColor=#ae4132;" vertex="1" parent="1">
          <mxGeometry x="640" y="320" width="240" height="110" as="geometry" />
        </mxCell>
        <mxCell id="8f4gQFdD9FJ9nO9-gUFD-48" value="" style="endArrow=classic;html=1;rounded=0;exitX=0.75;exitY=0;exitDx=0;exitDy=0;entryX=0.25;entryY=0;entryDx=0;entryDy=0;" edge="1" parent="1" source="8f4gQFdD9FJ9nO9-gUFD-49" target="8f4gQFdD9FJ9nO9-gUFD-46">
          <mxGeometry width="50" height="50" relative="1" as="geometry">
            <mxPoint x="620" y="360" as="sourcePoint" />
            <mxPoint x="670" y="310" as="targetPoint" />
          </mxGeometry>
        </mxCell>
        <mxCell id="8f4gQFdD9FJ9nO9-gUFD-49" value="&lt;font face=&quot;helvetica&quot;&gt;切换至&lt;br&gt;目标状态&lt;/font&gt;" style="text;whiteSpace=wrap;html=1;" vertex="1" parent="1">
          <mxGeometry x="640" y="280" width="80" height="30" as="geometry" />
        </mxCell>
        <mxCell id="8f4gQFdD9FJ9nO9-gUFD-50" value="&lt;div class=&quot;okr-block-clipboard&quot;&gt;&lt;/div&gt;&lt;div&gt;&lt;span lang=&quot;EN-US&quot;&gt;&lt;font style=&quot;font-size: 12px&quot;&gt;house_edit_state_component_base&lt;/font&gt;&lt;/span&gt;&lt;br&gt;&lt;/div&gt;" style="rounded=1;whiteSpace=wrap;html=1;" vertex="1" parent="1">
          <mxGeometry x="645" y="330" width="230" height="30" as="geometry" />
        </mxCell>
        <mxCell id="8f4gQFdD9FJ9nO9-gUFD-52" value="" style="endArrow=classic;html=1;rounded=0;exitX=1;exitY=0.5;exitDx=0;exitDy=0;" edge="1" parent="1" source="8f4gQFdD9FJ9nO9-gUFD-50">
          <mxGeometry width="50" height="50" relative="1" as="geometry">
            <mxPoint x="590" y="280" as="sourcePoint" />
            <mxPoint x="906" y="345" as="targetPoint" />
          </mxGeometry>
        </mxCell>
        <mxCell id="8f4gQFdD9FJ9nO9-gUFD-53" value="" style="rounded=0;whiteSpace=wrap;html=1;fillColor=#bac8d3;strokeColor=#23445d;" vertex="1" parent="1">
          <mxGeometry x="909" y="321" width="120" height="109" as="geometry" />
        </mxCell>
        <mxCell id="8f4gQFdD9FJ9nO9-gUFD-54" value="&lt;font face=&quot;helvetica&quot; style=&quot;font-size: 24px;&quot;&gt;.&lt;br style=&quot;font-size: 24px;&quot;&gt;.&lt;br style=&quot;font-size: 24px;&quot;&gt;.&lt;br style=&quot;font-size: 24px;&quot;&gt;&lt;/font&gt;" style="text;whiteSpace=wrap;html=1;fontSize=24;spacing=1;" vertex="1" parent="1">
          <mxGeometry x="750" y="340" width="80" height="30" as="geometry" />
        </mxCell>
        <mxCell id="8f4gQFdD9FJ9nO9-gUFD-55" value="&lt;div class=&quot;okr-block-clipboard&quot;&gt;&lt;/div&gt;&lt;div&gt;&lt;span lang=&quot;EN-US&quot;&gt;&lt;font style=&quot;font-size: 12px&quot;&gt;OnEnter&lt;/font&gt;&lt;/span&gt;&lt;br&gt;&lt;/div&gt;" style="rounded=1;whiteSpace=wrap;html=1;" vertex="1" parent="1">
          <mxGeometry x="919" y="331" width="100" height="30" as="geometry" />
        </mxCell>
        <mxCell id="8f4gQFdD9FJ9nO9-gUFD-56" value="" style="rounded=0;whiteSpace=wrap;html=1;fillColor=#bac8d3;strokeColor=#23445d;" vertex="1" parent="1">
          <mxGeometry x="909" y="64" width="120" height="235" as="geometry" />
        </mxCell>
        <mxCell id="8f4gQFdD9FJ9nO9-gUFD-58" value="&lt;div class=&quot;okr-block-clipboard&quot;&gt;&lt;/div&gt;&lt;div&gt;&lt;font style=&quot;font-size: 12px&quot;&gt;ShowToolUI&lt;/font&gt;&lt;/div&gt;" style="rounded=1;whiteSpace=wrap;html=1;" vertex="1" parent="1">
          <mxGeometry x="919" y="256" width="100" height="30" as="geometry" />
        </mxCell>
        <mxCell id="8f4gQFdD9FJ9nO9-gUFD-60" value="&lt;div class=&quot;okr-block-clipboard&quot;&gt;&lt;/div&gt;&lt;div&gt;&lt;span lang=&quot;EN-US&quot;&gt;&lt;font style=&quot;font-size: 12px&quot;&gt;Component&lt;/font&gt;&lt;/span&gt;&lt;br&gt;&lt;/div&gt;" style="rounded=1;whiteSpace=wrap;html=1;" vertex="1" parent="1">
          <mxGeometry x="917" y="80" width="100" height="30" as="geometry" />
        </mxCell>
        <mxCell id="8f4gQFdD9FJ9nO9-gUFD-59" value="&lt;div class=&quot;okr-block-clipboard&quot;&gt;&lt;/div&gt;&lt;div&gt;&lt;span lang=&quot;EN-US&quot;&gt;&lt;font style=&quot;font-size: 12px&quot;&gt;ShowHideGrid&lt;/font&gt;&lt;/span&gt;&lt;br&gt;&lt;/div&gt;" style="rounded=1;whiteSpace=wrap;html=1;" vertex="1" parent="1">
          <mxGeometry x="919" y="163.5" width="100" height="30" as="geometry" />
        </mxCell>
        <mxCell id="8f4gQFdD9FJ9nO9-gUFD-62" value="" style="endArrow=classic;html=1;rounded=0;fontSize=24;exitX=1;exitY=0.5;exitDx=0;exitDy=0;entryX=0;entryY=0.5;entryDx=0;entryDy=0;" edge="1" parent="1" source="8f4gQFdD9FJ9nO9-gUFD-2" target="8f4gQFdD9FJ9nO9-gUFD-65">
          <mxGeometry width="50" height="50" relative="1" as="geometry">
            <mxPoint x="605" y="96" as="sourcePoint" />
            <mxPoint x="680" y="131" as="targetPoint" />
          </mxGeometry>
        </mxCell>
        <mxCell id="8f4gQFdD9FJ9nO9-gUFD-65" value="house_comp_factory" style="rounded=1;whiteSpace=wrap;html=1;" vertex="1" parent="1">
          <mxGeometry x="620" y="82.5" width="170" height="25" as="geometry" />
        </mxCell>
        <mxCell id="8f4gQFdD9FJ9nO9-gUFD-66" value="" style="endArrow=classic;html=1;rounded=0;fontSize=24;exitX=0.5;exitY=0;exitDx=0;exitDy=0;entryX=0.5;entryY=1;entryDx=0;entryDy=0;" edge="1" parent="1" source="8f4gQFdD9FJ9nO9-gUFD-53" target="8f4gQFdD9FJ9nO9-gUFD-56">
          <mxGeometry width="50" height="50" relative="1" as="geometry">
            <mxPoint x="816" y="293" as="sourcePoint" />
            <mxPoint x="866" y="243" as="targetPoint" />
          </mxGeometry>
        </mxCell>
        <mxCell id="8f4gQFdD9FJ9nO9-gUFD-68" value="" style="endArrow=classic;html=1;rounded=0;fontSize=24;exitX=1;exitY=0.5;exitDx=0;exitDy=0;" edge="1" parent="1" source="8f4gQFdD9FJ9nO9-gUFD-65" target="8f4gQFdD9FJ9nO9-gUFD-60">
          <mxGeometry width="50" height="50" relative="1" as="geometry">
            <mxPoint x="851" y="245" as="sourcePoint" />
            <mxPoint x="901" y="195" as="targetPoint" />
          </mxGeometry>
        </mxCell>
        <mxCell id="8f4gQFdD9FJ9nO9-gUFD-69" value="&lt;font face=&quot;helvetica&quot;&gt;创建component&lt;/font&gt;" style="text;whiteSpace=wrap;html=1;" vertex="1" parent="1">
          <mxGeometry x="826" y="97.5" width="80" height="30" as="geometry" />
        </mxCell>
      </root>
    </mxGraphModel>
  </diagram>
</mxfile>
